{"title":"The.Skin.I.Live.In.2011.Brrip ac3-TRiNiTY","uid":6939967,"size":1306179087,"categoryP":"video","categoryS":"movies","magnet":"?xt=urn:btih:2e22f6bf5ccca1add291b63015afc7ae7511bb6c&amp;dn=The.Skin.I.Live.In.2011.Brrip+ac3-TRiNiTY&amp;tr=udp%3A%2F%2Ftracker.openbittorrent.com%3A80&amp;tr=udp%3A%2F%2Fopen.demonii.com%3A1337&amp;tr=udp%3A%2F%2Ftracker.coppersurfer.tk%3A6969&amp;tr=udp%3A%2F%2Fexodus.desync.com%3A6969","seeders":3,"leechers":0,"uploader":"maximersk","files":3,"time":1325971639,"description":"The.Skin.I.Live.In.2011.Brrip ac3-TRiNiTY\n\n\n\n\n\n\n\n\nLa piel que habito (original title)\nPlot: In honor of his late wife who died in a flaming car accident, scientist, Dr. Robert Ledgard, is trying to synthesize the perfect skin which can withstand burns, cuts or any other kind of damage. As he gets closer to perfecting this skin on his flawless patient, the scientific community starts growing skeptical and his past is revealed that shows how his patient is closely linked to tragic events he would like to forget.\n\nEncoder: NiNe\n\nFormat : Matroska\nFile size : 1.22 GiB\nDuration : 2h 0mn\nOverall bit rate : 1 449 Kbps\nEncoded date : UTC 2012-01-06 21:25:32\nWriting application : mkvmerge v4.9.1 ('Ich will') built on Jul 11 2011 23:53:15\nWriting library : libebml v1.2.1 + libmatroska v1.1.1\n\nVideo #1\nID : 1\nFormat : AVC\nFormat/Info : Advanced Video Codec\nFormat profile : &lt;a class=&quot;__cf_email__&quot; href=&quot;/cdn-cgi/l/email-protection&quot; data-cfemail=&quot;6c24050b042c2058425d&quot;&gt;[email&amp;#160;protected]&lt;/a&gt;&lt;script cf-hash='f9e31' type=&quot;text/javascript&quot;&gt;\n/* &lt;![CDATA[ */!function(){try{var t=&quot;currentScript&quot;in document?document.currentScript:function(){for(var t=document.getElementsByTagName(&quot;script&quot;),e=t.length;e--;)if(t[e].getAttribute(&quot;cf-hash&quot;))return t[e]}();if(t&amp;&amp;t.previousSibling){var e,r,n,i,c=t.previousSibling,a=c.getAttribute(&quot;data-cfemail&quot;);if(a){for(e=&quot;&quot;,r=parseInt(a.substr(0,2),16),n=2;a.length-n;n+=2)i=parseInt(a.substr(n,2),16)^r,e+=String.fromCharCode(i);e=document.createTextNode(e),c.parentNode.replaceChild(e,c)}}}catch(u){}}();/* ]]&gt; */&lt;/script&gt;\nFormat settings, CABAC : Yes\nFormat settings, ReFrames : 4 frames\nFormat settings, GOP : M=4, N=25\nCodec ID : V_MPEG4/ISO/AVC\nDuration : 2h 0mn\nBit rate : 1 000 Kbps\nWidth : 1 280 pixels\nHeight : 688 pixels\nDisplay aspect ratio : 1.860\nFrame rate : 24.000 fps\nColor space : YUV\nChroma subsampling : 4:2:0\nBit depth : 8 bits\nScan type : Progressive\nBits/(Pixel*Frame) : 0.047\nStream size : 836 MiB (67%)\nWriting library : x264 core 116 r2074 2641b9e\n\nEncoding settings : ca.00\nLanguage : English\n\nAudio #2\nID : 2\nFormat : AC-3\nFormat/Info : Audio Coding 3\nMode extension : CM (complete main)\nCodec ID : A_AC3\nDuration : 2h 0mn\nBit rate mode : Constant\nBit rate : 448 Kbps\nChannel(s) : 6 channels\nChannel positions : Front: L C R, Side: L R, LFE\nSampling rate : 48.0 KHz\nBit depth : 16 bits\nCompression mode : Lossy\nStream size : 385 MiB (31%)\nLanguage : Spanish\nsubs :hardcoded\n\n\n\n\n\n             WARNING PEOPLE : Not In English !!!!!!!!!!!!!!\n\n\n\n\n","torrent":{"xt":"urn:btih:2e22f6bf5ccca1add291b63015afc7ae7511bb6c","amp;dn":"The.Skin.I.Live.In.2011.Brrip+ac3-TRiNiTY","amp;tr":["udp%3A%2F%2Ftracker.openbittorrent.com%3A80","udp%3A%2F%2Fopen.demonii.com%3A1337","udp%3A%2F%2Ftracker.coppersurfer.tk%3A6969","udp%3A%2F%2Fexodus.desync.com%3A6969"],"infoHash":"2e22f6bf5ccca1add291b63015afc7ae7511bb6c","infoHashBuffer":{"type":"Buffer","data":[46,34,246,191,92,204,161,173,210,145,182,48,21,175,199,174,117,17,187,108]},"announce":[],"urlList":[]}}